<?xml version="1.0" encoding="utf-8"?>
<!-- Generator: Adobe Illustrator 27.8.0, SVG Export Plug-In . SVG Version: 6.00 Build 0)  -->
<svg version="1.1" xmlns="http://www.w3.org/2000/svg" xmlns:xlink="http://www.w3.org/1999/xlink" x="0px" y="0px"
	 viewBox="0 0 3840 342" style="enable-background:new 0 0 3840 342;" xml:space="preserve">
<g id="Ebene_1" style="display:none;">
</g>
<g id="Ebene_2">
</g>
<g id="Ebene_3">
	<path style="fill:#FFBBF1;" d="M1246.25,337.18h18.98V0h-18.98V337.18z M1047.18,267.82c0-43.35,37.97-59.25,85.17-59.25
		c26.17,0,49.77,1.93,49.77,1.93v81.89c-8.72,8.67-34.38,31.31-73.37,31.31C1080.02,323.7,1047.18,305.87,1047.18,267.82
		 M1108.24,341.04c38.99,0,64.65-21.19,71.83-26.97l2.57-1.93l3.59,25.05h16.93c-1.03-13.01-2.05-25.05-2.05-46.24v-118.5
		c0-50.1-30.27-70.33-80.04-70.33c-42.07,0-72.86,22.16-85.68,41.91l14.37,12.04c11.8-17.82,35.4-36.61,70.29-36.61
		c49.26,0,62.08,25.53,62.08,52.02v22.64c0,0-26.68-1.93-54.39-1.93c-52.33,0-101.08,23.12-101.08,74.66
		C1026.66,315.51,1065.65,341.04,1108.24,341.04 M977.4,71.29h18.98V29.38H977.4V71.29z M977.4,337.18h18.98V106.45H977.4V337.18z
		 M771.66,337.18h18.98V155.1c15.91-16.86,41.56-35.16,69.78-35.16c35.92,0,52.85,21.68,52.85,56.36v160.88h18.98v-165.7
		c0-40.46-25.65-68.88-70.81-68.88c-25.14,0-53.87,13.97-70.8,31.79v-28.42h-18.98V337.18z M568.48,337.18h18.98V155.1
		c15.91-16.86,41.56-35.16,69.78-35.16c35.92,0,52.85,21.68,52.85,56.36v160.88h18.98v-165.7c0-40.46-25.65-68.88-70.81-68.88
		c-25.14,0-53.87,13.97-70.8,31.79v-28.42h-18.98V337.18z M357.1,203.27c4.1-35.16,20.52-59.73,43.61-73.22
		c12.31-7.23,26.68-10.12,42.59-10.12c40.02,0,68.75,24.57,78.5,63.58c1.54,6.26,2.05,13.01,2.57,19.75H357.1z M442.78,342
		c50.28,0,88.76-30.83,99.02-79.96l-18.47-1.93c-11.8,40.94-40.02,64.06-80.55,64.06c-51.31,0-87.22-39.98-87.22-98.75v-4.34h188.3
		c0,0,0.51-10.12,0-15.41c-5.13-64.06-42.59-103.08-101.08-103.08c-63.11,0-106.21,47.21-106.21,119.46
		C336.57,293.83,379.16,342,442.78,342 M285.78,71.29h18.98V29.38h-18.98V71.29z M285.78,337.18h18.98V106.45h-18.98V337.18z
		 M20.52,130.54V19.27h134.43c40.53,0,71.83,19.27,71.83,57.32c0,33.24-21.55,53.95-56.44,53.95H20.52z M20.52,317.92V149.8h129.81
		c48.23,0,89.28,33.72,89.28,83.81c0,58.28-47.72,84.3-98.51,84.3H20.52z M0,337.18h132.37c75.94,0,129.3-32.76,129.3-105.01
		c0-38.54-23.6-74.18-63.11-90.56c31.3-9.63,50.79-34.2,50.79-65.03C249.36,34.68,211.9,0,152.9,0H0V337.18z"/>
	<path style="fill:#FF712B;" d="M3610.19,234.58L3763.6,41.91v192.68H3610.19z M3763.6,334.77h18.47v-82.85h57.98v-17.34h-57.98
		V7.23h-13.34L3587.1,234.58v17.34h176.5V334.77z M3377.26,328.51l4.1,8.67h236.02v-17.82h-213.95
		c21.04-41.43,75.42-79,115.96-104.53c43.61-27.46,98.51-59.73,98.51-113.2c0-42.87-26.17-75.63-66.7-89.11
		c-14.37-4.82-31.3-7.71-47.72-7.71c-66.7,0-113.39,42.39-123.65,100.67l19.5,5.3c8.21-46.24,39.51-88.15,103.13-88.15
		c60.03,0,94.92,32.76,94.92,76.59c0,48.17-40.02,69.84-90.81,102.6C3455.76,234.58,3394.19,277.93,3377.26,328.51 M3128.41,173.41
		c0-104.53,48.23-151.25,111.34-151.25c62.6,0,110.82,46.72,110.82,151.25c0,102.6-51.31,150.77-110.82,150.77
		C3179.21,324.18,3128.41,276.01,3128.41,173.41 M3239.75,342c76.45,0,131.86-59.73,131.86-168.59
		c0-107.9-50.8-168.59-131.86-168.59c-81.58,0-132.89,60.69-132.89,168.59C3106.86,282.27,3162.79,342,3239.75,342 M2848.79,328.51
		l4.1,8.67h236.02v-17.82h-213.95c21.04-41.43,75.42-79,115.96-104.53c43.61-27.46,98.51-59.73,98.51-113.2
		c0-42.87-26.17-75.63-66.7-89.11c-14.37-4.82-31.3-7.71-47.72-7.71c-66.7,0-113.39,42.39-123.65,100.67l19.5,5.3
		c8.21-46.24,39.51-88.15,103.13-88.15c60.03,0,94.92,32.76,94.92,76.59c0,48.17-40.02,69.84-90.81,102.6
		C2927.29,234.58,2865.72,277.93,2848.79,328.51"/>
</g>
</svg>
