<?xml version="1.0" encoding="utf-8"?>
<!-- Generator: Adobe Illustrator 27.8.0, SVG Export Plug-In . SVG Version: 6.00 Build 0)  -->
<svg version="1.1" xmlns="http://www.w3.org/2000/svg" xmlns:xlink="http://www.w3.org/1999/xlink" x="0px" y="0px"
	 viewBox="0 0 1635 2560" style="enable-background:new 0 0 1635 2560;" xml:space="preserve">
<g id="Ebene_1" style="display:none;">
</g>
<g id="Ebene_2">
	<path id="o-2_00000163043038720220200480000018224125177529419654_" style="fill:#FF712B;" d="M890.08,738.86
		c0-239.69,144.28-402.82,345.29-402.82s345.29,163.14,345.29,402.82c0,247.22-141.81,401.57-345.29,401.57
		S890.08,986.07,890.08,738.86 M1235.37,1190.62c241.7,0,399.55-178.2,399.55-451.77c0-279.84-176.34-451.76-399.55-451.76
		S835.82,459.01,835.82,738.86C835.82,1012.43,993.67,1190.62,1235.37,1190.62"/>
	<path id="s-2_00000081609622758269582920000013119891101646971794_" style="fill:#FF712B;" d="M456.57,997
		c200.01,0,320.27-126.24,320.27-261.51c0-167.47-135.45-204.82-272.17-244.76l-96.21-28.34
		c-136.72-39.93-225.33-73.43-225.33-173.91c0-121.09,122.79-168.75,241.79-168.75c102.54,0,165.83,33.49,198.75,64.41
		c35.44,32.21,55.7,63.12,75.95,122.38l49.37-15.46c-16.46-54.1-39.24-101.77-96.21-150.72c-53.17-45.09-127.86-70.85-232.93-70.85
		c-148.11,0-289.89,72.14-289.89,219c0,141.7,129.12,188.08,269.64,226.72l98.74,27.05c140.52,38.65,227.86,74.72,227.86,197.1
		c0,131.4-139.25,208.69-269.64,208.69c-86.08,0-144.31-21.9-191.15-50.24c-53.17-32.21-108.87-100.48-139.25-240.89l-51.9,14.17
		C118.57,891.37,241.36,997,456.57,997"/>
	<path id="a_00000071537827329162008690000014818378452317479593_" style="fill:#FFBBF1;" d="M465.29,1561.5l216.68,585.03H248.61
		L465.29,1561.5z M436.49,1493.29l-341.94,918.2h55.11l80.16-212.5h470.94l80.16,212.5h55.11l-341.93-918.2H436.49z"/>
</g>
<g id="Ebene_3">
</g>
</svg>
