<?xml version="1.0" encoding="utf-8"?>
<!-- Generator: Adobe Illustrator 27.8.0, SVG Export Plug-In . SVG Version: 6.00 Build 0)  -->
<svg version="1.1" xmlns="http://www.w3.org/2000/svg" xmlns:xlink="http://www.w3.org/1999/xlink" x="0px" y="0px"
	 viewBox="0 0 3840 2560" style="enable-background:new 0 0 3840 2560;" xml:space="preserve">
<g id="Ebene_1">
</g>
<g id="Ebene_2">
	<path id="o-2" style="fill:#FF712B;" d="M890.08,738.86c0-239.69,144.28-402.82,345.29-402.82s345.29,163.14,345.29,402.82
		c0,247.22-141.81,401.57-345.29,401.57S890.08,986.07,890.08,738.86 M1235.37,1190.62c241.7,0,399.55-178.2,399.55-451.77
		c0-279.84-176.34-451.76-399.55-451.76S835.82,459.01,835.82,738.86C835.82,1012.43,993.67,1190.62,1235.37,1190.62"/>
	<rect id="t-2" x="2827.42" y="66.89" style="fill:#FF712B;" width="49.06" height="603.21"/>
	<path id="s-2" style="fill:#FF712B;" d="M456.57,997c200.01,0,320.27-126.24,320.27-261.51c0-167.47-135.45-204.82-272.17-244.76
		l-96.21-28.34c-136.72-39.93-225.33-73.43-225.33-173.91c0-121.09,122.79-168.75,241.79-168.75c102.54,0,165.83,33.49,198.75,64.41
		c35.44,32.21,55.7,63.12,75.95,122.38l49.37-15.46c-16.46-54.1-39.24-101.77-96.21-150.72c-53.17-45.09-127.86-70.85-232.93-70.85
		c-148.11,0-289.89,72.14-289.89,219c0,141.7,129.12,188.08,269.64,226.72l98.74,27.05c140.52,38.65,227.86,74.72,227.86,197.1
		c0,131.4-139.25,208.69-269.64,208.69c-86.08,0-144.31-21.9-191.15-50.24c-53.17-32.21-108.87-100.48-139.25-240.89l-51.9,14.17
		C118.57,891.37,241.36,997,456.57,997"/>
	<path id="c" style="fill:#FF712B;" d="M3403.86,1191c198.2,0,324.89-107.72,380.09-263.03l-48.92-16.28
		c-53.94,149.05-168.09,229.21-328.66,229.21c-206.98,0-355-149.05-355-400.8c0-244.24,148.02-402.06,352.49-402.06
		c161.82,0,288.51,97.7,334.93,263.03l52.69-16.28c-52.69-186.62-194.43-295.59-387.61-295.59c-227.05,0-406.43,171.59-406.43,450.9
		C2997.43,1013.14,3158,1191,3403.86,1191"/>
	<polygon id="n" style="fill:#FF712B;" points="2727.05,66.89 2727.05,585.12 2382.39,66.89 2339.31,66.89 2339.31,670.1 
		2385.17,670.1 2385.17,151.91 2728.98,670.1 2772.91,670.1 2772.91,66.89 	"/>
	<path id="a" style="fill:#FFBBF1;" d="M465.29,1561.5l216.68,585.03H248.61L465.29,1561.5z M436.49,1493.29l-341.94,918.2h55.11
		l80.16-212.5h470.94l80.16,212.5h55.11l-341.93-918.2H436.49z"/>
	<polygon id="t" style="fill:#FFBBF1;" points="3022.58,1526.98 3022.58,1575.62 3235.57,1575.62 3234.77,2147.24 3283.42,2147.24 
		3284.22,1575.62 3495.61,1575.62 3495.61,1526.98 	"/>
	<path id="o" style="fill:#FFBBF1;" d="M2381.09,1366.69l56.99-18.48c-16.71-60.2-40.26-115.03-70.04-163.06
		c-30.32-48.89-67.22-90.94-109.69-124.98c-42.5-34.07-90.75-60.25-143.4-77.82c-53.41-17.82-111.61-26.86-172.98-26.86
		c-72.4,0-141.19,14.12-204.46,41.96c-63.02,27.73-118.73,68.27-165.57,120.48c-47.99,53.49-85.39,117.85-111.14,191.28
		c-26.99,76.96-40.67,162.58-40.67,254.5c0,181,49.35,334.07,142.73,442.68c93.11,108.3,224.21,165.54,379.11,165.54
		c122.32,0,227.57-33.16,312.81-98.57c39.83-30.56,75.05-68.2,104.68-111.86c27.78-40.93,50.82-87.39,68.52-138.17l-52.24-18.24
		c-35.38,99.59-89.73,176.77-161.62,229.45c-73.47,53.84-163.94,81.14-268.89,81.14c-67.57,0-130.77-12.65-187.85-37.58
		c-56.89-24.86-106.69-61.48-148-108.86c-85.83-98.41-131.2-238.64-131.2-405.53c0-82.07,11.6-158.72,34.49-227.82
		c22.19-67.01,54.58-125.78,96.26-174.67c41.32-48.48,90.77-86.11,146.99-111.85c57-26.1,119.6-39.33,186.06-39.33
		c104.87,0,200.83,33.21,277.5,96.05C2295.08,1168.06,2350.88,1258.07,2381.09,1366.69z"/>
	<path id="s" style="fill:#FFBBF1;" d="M3618.43,2063.83l-69.99-20.09c-42.92-12.22-83.72-24.65-111.2-42.35
		c-27.07-17.43-39.14-38.35-39.14-67.84c0-35.02,16.52-62.34,49.11-81.2c28.15-16.29,67.45-25.26,110.66-25.26
		c75.76,0,115.45,25.98,132.36,41.47l0.09,0.08c24.51,21.7,37.23,41.73,50.42,79.35l2.22,6.34l47.22-14.41l-2.1-6.72
		c-10.36-33.19-25.83-68.83-68.58-104.64c-40.08-33.13-94.1-49.24-165.12-49.24c-54.63,0-105.11,13.4-142.13,37.74
		c-42.41,27.88-64.82,68.16-64.82,116.49c0,45.84,19.55,81.18,59.76,108.02c36.83,24.58,87.14,39.3,131.42,51.17l68.1,18.19
		c50.65,13.58,87.16,25.68,112.65,44.06c27.2,19.61,39.33,44.81,39.33,81.69c0,48.91-30.57,80.02-56.21,97.5
		c-33.38,22.76-78.13,35.81-122.78,35.81c-49.58,0-90.34-10.42-128.29-32.8c-44.16-26.07-75.37-79.05-92.77-157.45l-1.58-7.12
		l-49.25,13.11l1.34,6.48c15.78,76.45,45.22,131.75,90.02,169.06c44.96,37.44,104.01,55.64,180.53,55.64
		c66.77,0,124.43-19.19,166.75-55.49c19.56-16.78,34.82-36.45,45.36-58.46c10.49-21.9,15.8-45.07,15.8-68.86
		C3807.61,2117.65,3711.44,2090.29,3618.43,2063.83z"/>
</g>
</svg>
