<?xml version="1.0" encoding="utf-8"?>
<!-- Generator: Adobe Illustrator 27.8.0, SVG Export Plug-In . SVG Version: 6.00 Build 0)  -->
<svg version="1.1" xmlns="http://www.w3.org/2000/svg" xmlns:xlink="http://www.w3.org/1999/xlink" x="0px" y="0px"
	 viewBox="0 0 1048 2560" style="enable-background:new 0 0 1048 2560;" xml:space="preserve">
<g id="Ebene_1" style="display:none;">
</g>
<g id="Ebene_2">
	<path id="o_00000181044906393775076810000016181497845997250751_" style="fill:#FFBBF1;" d="M987.09,1366.69l56.99-18.48
		c-16.71-60.2-40.26-115.03-70.04-163.06c-30.32-48.89-67.22-90.94-109.69-124.98c-42.5-34.07-90.75-60.25-143.4-77.82
		c-53.41-17.82-111.61-26.86-172.98-26.86c-72.4,0-141.19,14.12-204.46,41.96c-63.02,27.73-118.73,68.27-165.57,120.48
		c-47.99,53.49-85.39,117.85-111.14,191.28c-26.99,76.96-40.67,162.58-40.67,254.5c0,181,49.35,334.07,142.73,442.68
		c93.11,108.3,224.21,165.54,379.11,165.54c122.32,0,227.57-33.16,312.81-98.57c39.83-30.56,75.05-68.2,104.68-111.86
		c27.78-40.93,50.82-87.39,68.52-138.17l-52.24-18.24c-35.38,99.59-89.73,176.77-161.62,229.45
		c-73.47,53.84-163.94,81.14-268.89,81.14c-67.57,0-130.77-12.65-187.85-37.58c-56.89-24.86-106.69-61.48-148-108.86
		c-85.83-98.41-131.2-238.64-131.2-405.53c0-82.07,11.6-158.72,34.49-227.82c22.19-67.01,54.58-125.78,96.26-174.67
		c41.32-48.48,90.77-86.11,146.99-111.85c57-26.1,119.6-39.33,186.06-39.33c104.87,0,200.83,33.21,277.5,96.05
		C901.08,1168.06,956.88,1258.07,987.09,1366.69z"/>
</g>
<g id="Ebene_3">
</g>
</svg>
