<?xml version="1.0" encoding="utf-8"?>
<!-- Generator: Adobe Illustrator 27.8.0, SVG Export Plug-In . SVG Version: 6.00 Build 0)  -->
<svg version="1.1" xmlns="http://www.w3.org/2000/svg" xmlns:xlink="http://www.w3.org/1999/xlink" x="0px" y="0px"
	 viewBox="0 0 1551 2560" style="enable-background:new 0 0 1551 2560;" xml:space="preserve">
<g id="Ebene_1" style="display:none;">
</g>
<g id="Ebene_2">
</g>
<g id="Ebene_3">
	
		<rect id="t-2_00000058590741886012418780000012846404696642737290_" x="538.42" y="66.89" style="fill:#FF712B;" width="49.06" height="603.21"/>
	<path id="c_00000085248886709910220000000005126354557511870875_" style="fill:#FF712B;" d="M1114.86,1191
		c198.2,0,324.89-107.72,380.09-263.03l-48.92-16.28c-53.94,149.05-168.09,229.21-328.66,229.21c-206.98,0-355-149.05-355-400.8
		c0-244.24,148.02-402.06,352.49-402.06c161.82,0,288.51,97.7,334.93,263.03l52.69-16.28c-52.69-186.62-194.43-295.59-387.61-295.59
		c-227.05,0-406.43,171.59-406.43,450.9C708.43,1013.14,869,1191,1114.86,1191"/>
	<polygon id="n_00000077303644547839963590000012355404592984871847_" style="fill:#FF712B;" points="438.05,66.89 438.05,585.12 
		93.39,66.89 50.31,66.89 50.31,670.1 96.17,670.1 96.17,151.91 439.98,670.1 483.91,670.1 483.91,66.89 	"/>
	<polygon id="t_00000168799953164073076220000006389232973283723428_" style="fill:#FFBBF1;" points="733.58,1526.98 
		733.58,1575.62 946.57,1575.62 945.77,2147.24 994.42,2147.24 995.22,1575.62 1206.61,1575.62 1206.61,1526.98 	"/>
	<path id="s_00000020369427878271862480000009252015639114636183_" style="fill:#FFBBF1;" d="M1329.43,2063.83l-69.99-20.09
		c-42.92-12.22-83.72-24.65-111.2-42.35c-27.07-17.43-39.14-38.35-39.14-67.84c0-35.02,16.52-62.34,49.11-81.2
		c28.15-16.29,67.45-25.26,110.66-25.26c75.76,0,115.45,25.98,132.36,41.47l0.09,0.08c24.51,21.7,37.23,41.73,50.42,79.35l2.22,6.34
		l47.22-14.41l-2.1-6.72c-10.36-33.19-25.83-68.83-68.58-104.64c-40.08-33.13-94.1-49.24-165.12-49.24
		c-54.63,0-105.11,13.4-142.13,37.74c-42.41,27.88-64.82,68.16-64.82,116.49c0,45.84,19.55,81.18,59.76,108.02
		c36.83,24.58,87.14,39.3,131.42,51.17l68.1,18.19c50.65,13.58,87.16,25.68,112.65,44.06c27.2,19.61,39.33,44.81,39.33,81.69
		c0,48.91-30.57,80.02-56.21,97.5c-33.38,22.76-78.13,35.81-122.78,35.81c-49.58,0-90.34-10.42-128.29-32.8
		c-44.16-26.07-75.37-79.05-92.77-157.45l-1.58-7.12l-49.25,13.11l1.34,6.48c15.78,76.45,45.22,131.75,90.02,169.06
		c44.96,37.44,104.01,55.64,180.53,55.64c66.77,0,124.43-19.19,166.75-55.49c19.56-16.78,34.82-36.45,45.36-58.46
		c10.49-21.9,15.8-45.07,15.8-68.86C1518.61,2117.65,1422.44,2090.29,1329.43,2063.83z"/>
</g>
</svg>
