<?xml version="1.0" encoding="utf-8"?>
<!-- Generator: Adobe Illustrator 27.8.0, SVG Export Plug-In . SVG Version: 6.00 Build 0)  -->
<svg version="1.1" id="Ebene_1" xmlns="http://www.w3.org/2000/svg" xmlns:xlink="http://www.w3.org/1999/xlink" x="0px" y="0px"
	 viewBox="0 0 519 500" style="enable-background:new 0 0 519 500;" xml:space="preserve">
<style type="text/css">
	.st0{fill:#1D1D1B;}
	.st1{clip-path:url(#SVGID_00000121262881845124889090000004916287463126721439_);fill:#1D1D1B;}
	.st2{clip-path:url(#SVGID_00000175297371851395212440000016042004025103197856_);fill:#1D1D1B;}
	.st3{clip-path:url(#SVGID_00000009569401887143390120000003296730835258667672_);fill:#1D1D1B;}
	.st4{clip-path:url(#SVGID_00000161597510414296080680000008403397730024141197_);}
	.st5{clip-path:url(#SVGID_00000071547530474022701800000013758822748457462717_);fill:#1D1D1B;}
	.st6{clip-path:url(#SVGID_00000170278249085586799390000011851743084623861682_);fill:#1D1D1B;}
	.st7{clip-path:url(#SVGID_00000054247142612410757190000000685492999162541446_);fill:#1D1D1B;}
	.st8{clip-path:url(#SVGID_00000068657886193173664040000017656213408092270985_);fill:#1D1D1B;}
	.st9{clip-path:url(#SVGID_00000099659970885948288310000003196132710609589657_);fill:#1D1D1B;}
	.st10{clip-path:url(#SVGID_00000114787887714227750900000006682569482447517600_);fill:#1D1D1B;}
	.st11{clip-path:url(#SVGID_00000043448146136681714130000007082193271037238660_);fill:#1D1D1B;}
	.st12{fill-rule:evenodd;clip-rule:evenodd;}
	.st13{fill:none;stroke:#000000;stroke-linecap:square;stroke-miterlimit:10;}
</style>
<g>
	<path class="st0" d="M5.4,79h11.2v24.2h0.2c1.1-2.1,2.9-4,5.2-5.5c2.3-1.5,5.2-2.2,8.5-2.2c5.2,0,9.1,1.8,11.8,5.4
		c2.7,3.6,4,8,4,13.3v27.5H35.1v-26.8c0-6.9-2.7-10.3-8-10.3c-3.4,0-6,1.3-7.8,4c-1.8,2.7-2.7,6-2.7,10v23H5.4V79z"/>
	<path class="st0" d="M64,139.9c-3.2-2.1-5.5-4.8-7.2-8.2c-1.6-3.4-2.4-7.2-2.4-11.2c0-4.2,1-8.2,3-12c2-3.8,5-6.8,8.9-9.1
		c3.9-2.3,8.5-3.4,13.9-3.4c5.2,0,9.3,0.9,12,2.5c2.8,1.7,4.2,3.8,4.2,6.3c0,2.3-1.1,4.4-3.2,6.4s-5.2,3.6-9.3,4.8
		c-4.1,1.2-8.9,1.8-14.5,1.8l-3.1-0.1v-1.5c7.3,0.3,12.5-0.6,15.4-2.6c3-2,4.4-4.6,4.4-7.8c0-2-0.6-3.7-1.8-5.1
		c-1.2-1.4-3.1-2.1-5.5-2.1c-4.3,0-7.7,1.7-10.3,5.2c-2.6,3.5-3.8,7.8-3.8,13.1c0,3.2,0.5,6.3,1.6,9.1c1.1,2.9,2.7,5.2,5,7
		c2.3,1.8,5.1,2.7,8.4,2.7c4.4,0,7.9-1.1,10.3-3.3c2.5-2.2,4.1-5.7,4.9-10.6h1.4c-0.2,3.7-1.1,7.2-2.6,10.4
		c-1.5,3.2-3.8,5.8-6.8,7.9s-6.9,3-11.6,3C71,143,67.2,141.9,64,139.9z"/>
	<path class="st0" d="M111.6,139.5c-2.3-2.1-3.4-5.1-3.4-9.1V98.7h-9.5v-1.8h9.5v-9.2l10-7.4h1v16.6h13.5v8.1h-13.8v29.3
		c0,1.9,0.4,3.3,1.3,4.3c0.9,1,2.2,1.6,3.9,1.6c2.4,0,4.3-1,5.7-2.9c1.4-1.9,2.2-4.3,2.3-7.2h2.1c-0.3,4-1.5,7.1-3.5,9.3
		c-2,2.2-5,3.3-9,3.3C117.2,142.6,113.9,141.6,111.6,139.5z"/>
	<path class="st0" d="M15.5,220.1c-3.9-2.4-6.9-5.7-9.1-9.8c-2.1-4.2-3.2-9-3.2-14.3c0-5.4,1.1-10.2,3.4-14.4
		c2.2-4.2,5.4-7.5,9.5-9.9c4.1-2.4,8.8-3.6,14.1-3.6c6.5,0,12,1.9,16.5,5.6c4.5,3.7,7.1,9.2,7.7,16.3H41.1c-0.3-3.4-1.5-6.1-3.4-8.1
		c-1.9-2-4.5-3-7.8-3c-4,0-7.2,1.5-9.6,4.6c-2.4,3.1-3.7,7.2-3.7,12.5c0,5.2,1.2,9.3,3.6,12.4c2.4,3.1,5.6,4.7,9.6,4.7
		c3.4,0,6.1-0.9,8.1-2.8s3.2-4.5,3.5-7.7h13.4c-0.8,7.1-3.6,12.4-8.4,15.9s-10.5,5.3-17.2,5.3C24,223.6,19.5,222.4,15.5,220.1z"/>
	<path class="st0" d="M65.2,218.2c-2.7-3.5-4.1-8.1-4.1-13.7v-27.1h11.1v26.6c0,7,2.6,10.5,7.9,10.5c3.3,0,5.9-1.3,7.6-4
		c1.7-2.7,2.6-6.2,2.6-10.8v-22.3h11.1V205c0,7,1,12.7,3.1,17H92.5c-0.8-1.9-1.3-4.1-1.5-6.6h-0.2c-1.3,2.3-3.1,4.2-5.5,5.7
		c-2.4,1.5-5.2,2.2-8.5,2.2C71.8,223.4,67.9,221.6,65.2,218.2z"/>
	<path class="st0" d="M111.2,202.1v-42.7h11.1v42.9c0,4.4,0.2,8.2,0.7,11.5c0.4,3.3,1.2,6,2.4,8.3h-12
		C111.9,218.4,111.2,211.8,111.2,202.1z"/>
	<path class="st0" d="M133.8,162.1h9.8v15.2h-9.8V162.1z M141.1,183.9c1.7-1.6,2.6-3.8,2.6-6.6h13.4v8.9h-13.4v26.8h13.4v8.9h-13.4
		c0-2.9-0.8-5.1-2.6-6.6c-1.7-1.5-4.1-2.3-7.3-2.3v-26.8C137,186.3,139.4,185.5,141.1,183.9z"/>
	<path class="st0" d="M169.4,218.2c-2.7-3.5-4.1-8.1-4.1-13.7v-27.1h11.1v26.6c0,7,2.6,10.5,7.9,10.5c3.3,0,5.9-1.3,7.6-4
		c1.7-2.7,2.6-6.2,2.6-10.8v-22.3h11.1V205c0,7,1,12.7,3.1,17h-11.9c-0.8-1.9-1.3-4.1-1.5-6.6H195c-1.3,2.3-3.1,4.2-5.5,5.7
		c-2.4,1.5-5.2,2.2-8.5,2.2C176.1,223.4,172.2,221.6,169.4,218.2z"/>
	<path class="st0" d="M215.7,218.2c-2.7-3.5-4.1-8.1-4.1-13.7v-27.1h11.1v26.6c0,7,2.6,10.5,7.9,10.5c3.3,0,5.9-1.3,7.6-4
		c1.7-2.7,2.6-6.2,2.6-10.8v-22.3h11.1V205c0,7,1,12.7,3.1,17H243c-0.8-1.9-1.3-4.1-1.5-6.6h-0.2c-1.3,2.3-3.1,4.2-5.5,5.7
		c-2.4,1.5-5.2,2.2-8.5,2.2C222.3,223.4,218.4,221.6,215.7,218.2z"/>
	<path class="st0" d="M266.7,183.9c1.7-1.6,2.5-3.8,2.5-6.6h18.8v8.9h-18.8V222h-9.8v-35.8C262.6,186.3,265,185.5,266.7,183.9z"/>
	<path class="st0" d="M298.6,186.3h-8.2v-9h8.2v-4.2c0-4.8,1.3-8.5,4-11.1c2.7-2.6,6.1-3.8,10.2-3.8c2.7,0,4.9,0.4,6.7,1.1v9
		c-1.6-0.4-2.9-0.6-4.1-0.6c-1.8,0-3.2,0.4-4.3,1.3c-1,0.9-1.6,2.5-1.6,4.7v3.6h9.9v9h-9.8V222h-11.1V186.3z"/>
	<path class="st0" d="M332.5,220.3c-3.5-2-6.3-4.8-8.2-8.4c-1.9-3.6-2.9-7.7-2.9-12.3c0-4.6,1-8.7,2.9-12.3c1.9-3.6,4.7-6.4,8.2-8.5
		c3.5-2,7.6-3,12.2-3s8.7,1,12.2,3c3.5,2,6.2,4.8,8.1,8.5c1.9,3.6,2.9,7.7,2.9,12.3c0,4.6-1,8.7-2.9,12.3c-1.9,3.6-4.6,6.4-8.1,8.4
		c-3.5,2-7.6,3-12.2,3S336,222.4,332.5,220.3z M353.3,210.2c2.1-2.7,3.1-6.2,3.1-10.6c0-4.4-1-7.9-3.1-10.6s-5-4-8.7-4
		c-3.7,0-6.6,1.3-8.7,4s-3.1,6.2-3.1,10.6c0,4.4,1,7.9,3.1,10.6c2.1,2.7,5,4,8.7,4C348.3,214.3,351.2,212.9,353.3,210.2z"/>
	<path class="st0" d="M369.8,220.3h7.2v-41.2h-7.2v-1.8h17.9v7.4h0.1c1.3-2.4,3.2-4.5,5.7-6c2.5-1.6,5.5-2.4,9.1-2.4
		c4.1,0,7.2,1.2,9.6,3.7c2.3,2.5,3.5,5.8,3.5,9.9v30.3h6.3v1.8h-23.7v-1.8h6.7v-30.3h8.4c0-3.4-1-6.1-2.9-8.2
		c-1.9-2.1-4.6-3.1-8.1-3.1c-2.6,0-5,0.6-7.2,1.8c-2.3,1.2-4.1,2.9-5.4,5c-1.3,2.1-2,4.6-2,7.3v27.6h6.7v1.8h-24.6V220.3z"/>
	<path class="st0" d="M432.1,220.4c-3.1-2-5.5-4.8-7.3-8.4c-1.8-3.6-2.6-7.7-2.6-12.3c0-4.7,0.9-8.8,2.6-12.4
		c1.8-3.6,4.2-6.4,7.3-8.4c3.1-2,6.6-3,10.4-3c2.9,0,5.5,0.6,7.8,1.9c2.4,1.3,4.3,3.1,5.9,5.5h0.2v-23.9h11.1V204V222h-11.1v-6h-0.2
		c-1.5,2.4-3.4,4.3-5.8,5.5c-2.4,1.2-5,1.8-7.9,1.8C438.7,223.4,435.2,222.4,432.1,220.4z M453.5,210.5c2.1-2.7,3.1-6.4,3.1-10.8
		c0-4.5-1-8.2-3.1-10.9c-2.1-2.7-4.8-4.1-8.3-4.1c-3.5,0-6.3,1.4-8.4,4.1c-2.1,2.7-3.1,6.4-3.1,10.9c0,4.5,1,8.2,3.1,10.9
		c2.1,2.7,4.9,4.1,8.4,4.1C448.7,214.6,451.4,213.3,453.5,210.5z"/>
	<path class="st0" d="M504.4,178c2.8,1.4,4.9,3.3,6.4,5.6c1.5,2.3,2.3,4.8,2.4,7.5h-10.8c-0.1-2-0.9-3.6-2.3-4.8
		c-1.4-1.3-3.4-1.9-6-1.9c-2.3,0-4.1,0.4-5.4,1.3c-1.3,0.9-1.9,2-1.9,3.4c0,1.1,0.4,2.1,1.1,2.8c0.7,0.7,2,1.3,3.8,1.7l9.9,2.2
		c4.1,1,7.2,2.5,9.4,4.6c2.1,2.1,3.2,4.8,3.2,8.1c0,3-0.8,5.6-2.5,7.8c-1.7,2.2-4,4-7,5.2c-3,1.2-6.4,1.8-10.2,1.8
		c-6,0-10.9-1.5-14.6-4.5c-3.7-3-5.7-7.1-5.9-12.4h10.8c0.1,2.8,1.1,4.9,2.8,6.3c1.8,1.4,4.1,2.1,7,2.1c2.7,0,4.8-0.5,6.4-1.4
		c1.6-0.9,2.4-2.2,2.4-3.9c0-1.1-0.4-2.1-1.2-2.8c-0.8-0.7-2.2-1.3-4.2-1.7l-9.8-2.1c-8.2-1.8-12.3-6-12.3-12.4
		c0-2.8,0.8-5.3,2.3-7.5c1.5-2.2,3.7-3.9,6.5-5.2c2.8-1.3,6-1.9,9.5-1.9C498.2,175.9,501.6,176.6,504.4,178z"/>
</g>
<g>
	<g>
		<path class="st0" d="M166,99h14c8,0,13,4.3,13,11.1c0,6.8-5.1,11.1-13,11.1h-9v14.7h-5V99z M179.8,116.7c4.9,0,8.1-2.5,8.1-6.7
			c0-4.1-3.2-6.7-8.1-6.7H171v13.3H179.8z"/>
		<path class="st0" d="M197.4,109.5h4.6v5.9h0.2c1.2-3.7,3.8-6.6,8.3-6.6c1.1,0,2.2,0.2,3,0.6v4.8c-0.9-0.4-1.9-0.6-3.3-0.6
			c-4.9,0-8.1,4.2-8.1,10.9v11.5h-4.6V109.5z"/>
		<path class="st0" d="M216.9,99.1h5.1v6h-5.1V99.1z M217.1,109.5h4.6v26.4h-4.6V109.5z"/>
		<path class="st0" d="M228.6,109.5h4.6v4.6h0.1c1.4-3,4.4-5.3,8.7-5.3c6.4,0,9.6,5,9.6,11v16H247v-15.8c0-4.9-2.2-7.5-6.1-7.5
			c-5,0-7.7,4.4-7.7,9.9v13.4h-4.6V109.5z"/>
		<path class="st0" d="M277.7,117.5h-4.5c-0.2-2.7-2.4-4.9-6.1-4.9c-3.4,0-5.5,1.6-5.5,3.8c0,1.6,0.9,2.7,3.6,3.4l6.1,1.4
			c4.6,1.1,7,3.5,7,7.2c0,4.9-4.5,8.3-11,8.3c-6.7,0-11.2-3.8-11.5-9.7h4.5c0.3,4,3,6,7.1,6c3.8,0,6.4-1.6,6.4-4.2
			c0-1.7-0.8-2.8-4-3.5l-5.9-1.4c-5-1.2-6.9-3.7-6.9-6.9c0-4.7,4.2-8.1,10.1-8.1C273.7,108.9,277.5,112.8,277.7,117.5z"/>
		<path class="st0" d="M295.6,99h14.4c7.8,0,12.5,3.3,12.5,9.2c0,4-2.4,7.2-6.8,8.3v0.1c5.4,0.9,8.6,4,8.6,9c0,6.4-5.1,10.3-13,10.3
			h-15.6V99z M310.2,114.6c4.9,0,7.2-2.3,7.2-5.8c0-3.4-2.4-5.4-7.2-5.4h-9.6v11.2H310.2z M311.3,131.5c5,0,7.8-2.3,7.8-6.3
			c0-3.7-2.8-6.2-7.8-6.2h-10.7v12.6H311.3z"/>
		<path class="st0" d="M327.7,122.8c0-8.2,5.3-14,12.7-14c6.9,0,11.6,4.9,11.6,12.7v1.8h-19.6c0.2,6,3.3,9.4,8.1,9.4
			c3.7,0,6.3-2.2,6.9-5.3h4.7c-1,5.9-5.9,9.2-11.6,9.2C332.7,136.6,327.7,130.9,327.7,122.8z M347.1,119.7c-0.1-3.9-2.5-7.1-6.8-7.1
			c-3.9,0-6.9,2.5-7.7,7.1H347.1z"/>
		<path class="st0" d="M357.3,109.5h4.6v5.9h0.2c1.2-3.7,3.8-6.6,8.3-6.6c1.1,0,2.2,0.2,3,0.6v4.8c-0.9-0.4-1.9-0.6-3.3-0.6
			c-4.9,0-8.1,4.2-8.1,10.9v11.5h-4.6V109.5z"/>
		<path class="st0" d="M377,109.5h4.6v4.6h0.1c1.4-3,4.4-5.3,8.7-5.3c6.4,0,9.6,5,9.6,11v16h-4.6v-15.8c0-4.9-2.2-7.5-6.1-7.5
			c-5,0-7.7,4.4-7.7,9.9v13.4H377V109.5z"/>
		<path class="st0" d="M406.6,99h4.6v15.2h0.1c1.4-3,4.4-5.3,8.7-5.3c6.4,0,9.6,5,9.6,11v16H425v-15.8c0-4.9-2.2-7.5-6.1-7.5
			c-5,0-7.7,4.4-7.7,9.9v13.4h-4.6V99z"/>
		<path class="st0" d="M434.1,129.1c0-5.6,4.7-7.9,13.8-9.1l3.8-0.5v-1.4c0-3.6-2.2-5.5-5.8-5.5c-3.9,0-6.1,2.2-6.4,5.6H435
			c0.4-6.1,5-9.3,11-9.3c6,0,10.2,3,10.2,9.3v11.6c0,2,0.7,3,2.3,3c0.8,0,1.5-0.2,2.1-0.4v3.6c-0.8,0.5-1.9,0.7-3.1,0.7
			c-3.4,0-5.3-2.1-5.6-5.5c-1.8,3.9-5.5,5.5-9.2,5.5C437.3,136.6,434.1,133.3,434.1,129.1z M443.6,132.9c4.3,0,8.2-3.2,8.2-9.1v-1.1
			l-3.4,0.5c-6.2,0.9-9.5,2.5-9.5,5.5C438.9,131.1,440.4,132.9,443.6,132.9z"/>
		<path class="st0" d="M463.9,109.5h4.6v5.9h0.2c1.2-3.7,3.8-6.6,8.3-6.6c1.1,0,2.2,0.2,3,0.6v4.8c-0.9-0.4-1.9-0.6-3.3-0.6
			c-4.9,0-8.1,4.2-8.1,10.9v11.5h-4.6V109.5z"/>
		<path class="st0" d="M480.9,122.7c0-8.3,5.3-13.9,12.1-13.9c3.7,0,6.9,1.8,8.8,5.1h0.1V99h4.6v27.3v9.7h-4.6v-4.4h-0.1
			c-1.7,3.3-5,5.1-8.8,5.1C486.2,136.6,480.9,131,480.9,122.7z M493.9,132.9c5,0,8.1-4.1,8.1-10.2c0-6.1-3.2-10.2-8.1-10.2
			s-8.2,4.1-8.2,10.2C485.7,128.9,488.9,132.9,493.9,132.9z"/>
	</g>
</g>
</svg>
